<svg xmlns="http://www.w3.org/2000/svg" xmlns:xlink="http://www.w3.org/1999/xlink" version="1.1" id="Your_Icon" x="0px" y="0px" width="100px" height="100px" viewBox="0 0 100 100" style="enable-background:new 0 0 100 100;" xml:space="preserve">
<g>
	<path style="fill:#010101;" d="M82.692,0H28.846C20.35,0,13.462,6.889,13.462,15.385h3.846c4.248,0,7.692,1.528,7.692,5.776   s-3.444,5.762-7.692,5.762h-3.846v15.385h3.846c4.248,0,7.692,1.528,7.692,5.776s-3.444,5.762-7.692,5.762h-3.846V69.23h3.846   c4.248,0,7.692,1.529,7.692,5.777s-3.444,5.762-7.692,5.762h-3.846v3.846c0,8.496,6.888,15.385,15.384,15.385h53.847   c8.496,0,15.385-6.889,15.385-15.385v-69.23C98.077,6.889,91.188,0,82.692,0z M17.308,73.077h-3.85   c-1.597,0-3.843-0.598-3.843-1.931v-5.574c-3.658,0.436-7.692,1.969-7.692,7.505c0,7.692,7.79,7.692,11.535,7.692h3.85   c2.126,0,3.847-1.721,3.847-3.847S19.434,73.077,17.308,73.077z M17.308,53.846c2.126,0,3.847-1.72,3.847-3.846   s-1.721-3.846-3.847-3.846h-3.85c-1.597,0-3.843-0.598-3.843-1.931v-5.574c-3.658,0.436-7.692,1.968-7.692,7.505   c0,7.691,7.79,7.691,11.535,7.691h0.004H17.308z M17.308,19.23h-3.85c-1.597,0-3.843-0.597-3.843-1.931v-1.915   c0-1.292,0.207-2.528,0.507-3.729c-3.782,0.353-8.199,1.78-8.199,7.575c0,7.692,7.79,7.692,11.535,7.692h3.85   c2.126,0,3.847-1.72,3.847-3.846S19.434,19.23,17.308,19.23z M75.439,73.092H43.679c-2.303,0-3.479-1.784-3.271-3.805   c0.706-6.858,3.286-8.973,11.937-12.815c2.633-1.172,3.677-2.58,2.854-4.688c-0.688-1.766-3.921-2.99-4.977-8.763   c-0.034,0.008-0.063,0.045-0.098,0.045c-0.59,0-1.07-1.033-1.07-2.307c0-1.1,0.364-1.976,0.837-2.208   c0.14-6.618,2.656-11.629,9.668-11.629c7.013,0,9.529,5.011,9.668,11.629c0.474,0.232,0.838,1.108,0.838,2.208   c0,1.273-0.48,2.307-1.07,2.307c-0.034,0-0.063-0.037-0.098-0.045c-1.056,5.772-4.289,6.997-4.977,8.763   c-0.822,2.107,0.222,3.516,2.854,4.688c8.65,3.843,11.23,5.957,11.937,12.815C78.918,71.308,77.742,73.092,75.439,73.092z"/>
</g>
</svg>